<svg width="2400" height="2400" viewBox="0 0 2400 2400" fill="none" xmlns="http://www.w3.org/2000/svg">
<path d="M561.709 1326.71C1151.58 1457.79 1219.59 1690.02 1355.92 2028.87C1355.92 2028.87 1271.4 2084.22 1239.41 2093.55C1207.42 2102.87 1175.18 2113.21 1151.58 2113.21C430.626 2113.21 234.001 999 234.001 999C299.542 1130.08 758.334 1146.47 1086.04 1212.01C1413.75 1277.55 1544.83 1556.1 1544.83 1687.19C1544.83 1818.27 1430.14 1932.97 1430.14 1932.97C1217.13 1326.71 561.709 1326.71 561.709 1326.71Z" fill="url(#paint0_linear)"/>
<path d="M923.492 286C923.492 286 695.417 687.536 671.01 1094C797.8 1118.42 867.704 1127.75 992.01 1143C1045.23 1093.41 1080.27 1070.27 1147.79 1033.5C1106.79 948.109 1047.64 854.205 965.352 747.555C965.352 747.555 1079.67 841.305 1177.51 1022C1214.75 1001.39 1386.38 958.82 1425 949.499C1215.89 705.629 892.75 416.528 923.492 286Z" fill="url(#paint1_linear)"/>
<path d="M1211.87 1069.51C1526.58 957.066 1978.12 874.213 2023.93 734.999C2023.93 734.999 1873.26 1420.86 1590 1787.5C1602.35 1644.12 1602.45 1495.68 1383.5 1296.71C1471.3 1230.13 1588.22 1167.52 1747.3 1106.83C1747.3 1106.83 1549.69 1135.84 1352 1267.95C1239.52 1206.27 1173.7 1180 1048.5 1156.56C1094.48 1122.07 1148.62 1092.11 1211.87 1069.51Z" fill="url(#paint2_linear)"/>
<defs>
<linearGradient id="paint0_linear" x1="2076" y1="283.5" x2="234.001" y2="2113" gradientUnits="userSpaceOnUse">
<stop offset="0.166667" stop-color="#05C1FD"/>
<stop offset="1" stop-color="#18D68C"/>
</linearGradient>
<linearGradient id="paint1_linear" x1="685.5" y1="285.999" x2="1794.5" y2="1406" gradientUnits="userSpaceOnUse">
<stop stop-color="#5848F4"/>
<stop offset="0.604167" stop-color="#05C1FD"/>
</linearGradient>
<linearGradient id="paint2_linear" x1="2210" y1="516.499" x2="1173.5" y2="1668.5" gradientUnits="userSpaceOnUse">
<stop offset="0.651042" stop-color="#05C1FD"/>
<stop offset="1" stop-color="#18D68C"/>
</linearGradient>
</defs>
</svg>
