<svg width="5622" height="1828" viewBox="0 0 5622 1828" fill="none" xmlns="http://www.w3.org/2000/svg">
<path d="M306.366 1032.93C857.824 1155.48 921.402 1372.58 1048.85 1689.37C1048.85 1689.37 969.838 1741.1 939.93 1749.83C910.022 1758.55 879.882 1768.21 857.824 1768.21C183.819 1768.21 -0.00012207 726.564 -0.00012207 726.564C61.2731 849.111 490.185 864.429 796.551 925.702C1102.92 986.975 1225.46 1247.39 1225.46 1369.93C1225.46 1492.48 1118.23 1599.71 1118.23 1599.71C919.097 1032.93 306.366 1032.93 306.366 1032.93Z" fill="url(#paint0_linear)"/>
<path d="M644.587 59.9997C644.587 59.9997 431.366 435.385 408.549 815.377C527.081 838.205 592.433 846.933 708.643 861.186C758.401 814.822 791.155 793.19 854.276 758.818C815.951 678.988 760.652 591.2 683.721 491.495C683.721 491.495 790.592 579.14 882.062 748.067C916.881 728.798 1077.33 689.001 1113.43 680.288C917.94 452.299 615.847 182.027 644.587 59.9997Z" fill="url(#paint1_linear)"/>
<path d="M914.181 792.485C1208.4 687.361 1630.54 609.904 1673.36 479.758C1673.36 479.758 1532.5 1120.95 1267.69 1463.71C1279.23 1329.67 1279.33 1190.9 1074.64 1004.88C1156.72 942.64 1266.03 884.107 1414.74 827.375C1414.74 827.375 1230 854.497 1045.19 977.997C940.037 920.339 878.499 895.78 761.454 873.864C804.443 841.615 855.056 813.611 914.181 792.485Z" fill="url(#paint2_linear)"/>
<path d="M2497.6 407.2C2607.73 407.2 2688.93 428.667 2741.2 471.6C2793.47 514.533 2819.6 574.733 2819.6 652.2V687.2C2819.6 741.333 2804.67 789.4 2774.8 831.4C2744.93 872.467 2702 901.4 2646 918.2L2884 1341H2751L2528.4 943.4C2520.93 944.333 2506 944.8 2483.6 944.8C2446.27 944.8 2409.4 943.4 2373 940.6V1341H2254V412.8C2358.53 409.067 2439.73 407.2 2497.6 407.2ZM2494.8 508C2464 508 2423.4 508.933 2373 510.8V841.2C2423.4 845.867 2465.4 848.2 2499 848.2C2633.4 848.2 2700.6 793.6 2700.6 684.4V656.4C2700.6 606 2684.27 568.667 2651.6 544.4C2618.93 520.133 2566.67 508 2494.8 508ZM3213.38 641C3291.78 641 3351.52 662.467 3392.58 705.4C3433.65 748.333 3454.18 810.4 3454.18 891.6V1035.8H3094.38V1118.4C3094.38 1166 3105.58 1200.53 3127.98 1222C3151.32 1242.53 3187.72 1252.8 3237.18 1252.8C3285.72 1252.8 3346.38 1245.33 3419.18 1230.4L3421.98 1334C3335.18 1349.87 3273.12 1357.8 3235.78 1357.8C3143.38 1357.8 3076.65 1337.73 3035.58 1297.6C2995.45 1257.47 2975.38 1195.4 2975.38 1111.4V891.6C2975.38 810.4 2994.98 748.333 3034.18 705.4C3074.32 662.467 3134.05 641 3213.38 641ZM3213.38 740.4C3176.98 740.4 3148.05 752.067 3126.58 775.4C3105.12 797.8 3094.38 830.467 3094.38 873.4V940.6H3335.18V877.6C3335.18 832.8 3323.98 798.733 3301.58 775.4C3280.12 752.067 3250.72 740.4 3213.38 740.4ZM3741.55 424V1236H4105.55V1341H3622.55V424H3741.55ZM4364.83 657.8V1341H4245.83V657.8H4364.83ZM4304.63 382C4329.83 382 4348.96 387.6 4362.03 398.8C4376.03 410 4383.03 425.867 4383.03 446.4V487C4383.03 507.533 4376.03 523.4 4362.03 534.6C4348.96 544.867 4329.83 550 4304.63 550C4280.36 550 4261.23 544.867 4247.23 534.6C4234.16 523.4 4227.63 507.533 4227.63 487V446.4C4227.63 425.867 4234.16 410 4247.23 398.8C4261.23 387.6 4280.36 382 4304.63 382ZM4812.28 368C4843.08 368 4872.48 371.267 4900.48 377.8V473C4872.48 468.333 4843.55 466 4813.68 466C4784.75 466 4761.88 475.333 4745.08 494C4729.21 512.667 4721.28 541.133 4721.28 579.4V657.8H4861.28V755.8H4721.28V1341H4602.28V755.8H4504.28V657.8H4602.28V586.4C4603.21 513.6 4621.41 459 4656.88 422.6C4692.35 386.2 4744.15 368 4812.28 368ZM5194.44 641C5272.84 641 5332.57 662.467 5373.64 705.4C5414.7 748.333 5435.24 810.4 5435.24 891.6V1035.8H5075.44V1118.4C5075.44 1166 5086.64 1200.53 5109.04 1222C5132.37 1242.53 5168.77 1252.8 5218.24 1252.8C5266.77 1252.8 5327.44 1245.33 5400.24 1230.4L5403.04 1334C5316.24 1349.87 5254.17 1357.8 5216.84 1357.8C5124.44 1357.8 5057.7 1337.73 5016.64 1297.6C4976.5 1257.47 4956.44 1195.4 4956.44 1111.4V891.6C4956.44 810.4 4976.04 748.333 5015.24 705.4C5055.37 662.467 5115.1 641 5194.44 641ZM5194.44 740.4C5158.04 740.4 5129.1 752.067 5107.64 775.4C5086.17 797.8 5075.44 830.467 5075.44 873.4V940.6H5316.24V877.6C5316.24 832.8 5305.04 798.733 5282.64 775.4C5261.17 752.067 5231.77 740.4 5194.44 740.4Z" fill="black"/>
<defs>
<linearGradient id="paint0_linear" x1="1722.04" y1="57.6626" x2="0.000156796" y2="1768.01" gradientUnits="userSpaceOnUse">
<stop offset="0.166667" stop-color="#05C1FD"/>
<stop offset="1" stop-color="#18D68C"/>
</linearGradient>
<linearGradient id="paint1_linear" x1="422.095" y1="59.9993" x2="1458.87" y2="1107.06" gradientUnits="userSpaceOnUse">
<stop stop-color="#5848F4"/>
<stop offset="0.604167" stop-color="#05C1FD"/>
</linearGradient>
<linearGradient id="paint2_linear" x1="1847.31" y1="275.488" x2="878.314" y2="1352.46" gradientUnits="userSpaceOnUse">
<stop offset="0.651042" stop-color="#05C1FD"/>
<stop offset="1" stop-color="#18D68C"/>
</linearGradient>
</defs>
</svg>
