<svg width="1933" height="1828" viewBox="0 0 1933 1828" fill="none" xmlns="http://www.w3.org/2000/svg">
<path d="M327.708 1040.71C917.583 1171.79 985.59 1404.02 1121.92 1742.88C1121.92 1742.88 1037.4 1798.22 1005.41 1807.55C973.417 1816.88 941.178 1827.21 917.583 1827.21C196.625 1827.21 -0.000244141 713 -0.000244141 713C65.5414 844.083 524.333 860.469 852.041 926.01C1179.75 991.552 1310.83 1270.1 1310.83 1401.19C1310.83 1532.27 1196.14 1646.97 1196.14 1646.97C983.125 1040.71 327.708 1040.71 327.708 1040.71Z" fill="url(#paint0_linear)"/>
<path d="M689.492 0.000479208C689.492 0.000479208 461.417 401.537 437.01 808.001C563.8 832.418 633.704 841.754 758.01 857.001C811.235 807.407 846.271 784.268 913.789 747.501C872.793 662.11 813.642 568.206 731.352 461.556C731.352 461.556 845.668 555.306 943.51 736.001C980.755 715.39 1152.38 672.82 1191 663.5C981.887 419.629 658.75 130.529 689.492 0.000479208Z" fill="url(#paint1_linear)"/>
<path d="M977.866 783.514C1292.58 671.066 1744.12 588.213 1789.93 449C1789.93 449 1639.26 1134.87 1356 1501.5C1368.35 1358.12 1368.45 1209.68 1149.5 1010.71C1237.3 944.129 1354.22 881.518 1513.3 820.834C1513.3 820.834 1315.69 849.845 1118 981.949C1005.52 920.274 939.698 894.005 814.5 870.562C860.484 836.066 914.622 806.111 977.866 783.514Z" fill="url(#paint2_linear)"/>
<defs>
<linearGradient id="paint0_linear" x1="1842" y1="-2.49995" x2="7.7439e-05" y2="1827" gradientUnits="userSpaceOnUse">
<stop offset="0.166667" stop-color="#05C1FD"/>
<stop offset="1" stop-color="#18D68C"/>
</linearGradient>
<linearGradient id="paint1_linear" x1="451.5" y1="5.97486e-05" x2="1560.5" y2="1120" gradientUnits="userSpaceOnUse">
<stop stop-color="#5848F4"/>
<stop offset="0.604167" stop-color="#05C1FD"/>
</linearGradient>
<linearGradient id="paint2_linear" x1="1976" y1="230.5" x2="939.5" y2="1382.5" gradientUnits="userSpaceOnUse">
<stop offset="0.651042" stop-color="#05C1FD"/>
<stop offset="1" stop-color="#18D68C"/>
</linearGradient>
</defs>
</svg>
