<svg width="1933" height="1828" viewBox="0 0 1933 1828" fill="none" xmlns="http://www.w3.org/2000/svg">
<path d="M327.708 1040.71C917.583 1171.79 985.59 1404.02 1121.92 1742.87C1121.92 1742.87 1037.4 1798.22 1005.41 1807.55C973.417 1816.87 941.178 1827.21 917.583 1827.21C196.625 1827.21 -0.000244141 713 -0.000244141 713C65.5414 844.083 524.333 860.468 852.041 926.01C1179.75 991.552 1310.83 1270.1 1310.83 1401.19C1310.83 1532.27 1196.14 1646.97 1196.14 1646.97C983.125 1040.71 327.708 1040.71 327.708 1040.71Z" fill="black"/>
<path d="M689.492 -9.07325e-06C689.492 -9.07325e-06 461.417 401.536 437.01 808C563.8 832.418 633.704 841.754 758.01 857C811.235 807.406 846.271 784.267 913.789 747.5C872.793 662.109 813.642 568.206 731.352 461.555C731.352 461.555 845.668 555.305 943.51 736C980.755 715.389 1152.38 672.82 1191 663.5C981.887 419.629 658.75 130.528 689.492 -9.07325e-06Z" fill="black"/>
<path d="M977.866 783.513C1292.58 671.066 1744.12 588.213 1789.93 449C1789.93 449 1639.26 1134.86 1356 1501.5C1368.35 1358.12 1368.45 1209.68 1149.5 1010.71C1237.3 944.129 1354.22 881.517 1513.3 820.833C1513.3 820.833 1315.69 849.845 1118 981.948C1005.52 920.274 939.698 894.004 814.5 870.561C860.484 836.066 914.622 806.111 977.866 783.513Z" fill="black"/>
</svg>
